<svg width="31" height="64" viewBox="0 0 31 64" fill="none" xmlns="http://www.w3.org/2000/svg">
<g clip-path="url(#clip0_316_316)">
<path d="M21.2757 7.13325C18.5777 3.94632 16.2545 0.709589 15.7799 0.0373468C15.7299 -0.0124489 15.6549 -0.0124489 15.605 0.0373468C15.1303 0.709589 12.8071 3.94632 10.1091 7.13325C-13.0482 36.5376 13.7564 56.3813 13.7564 56.3813L13.9812 56.5306C14.1811 59.5932 14.6807 64 14.6807 64H15.6799H16.6792C16.6792 64 17.1788 59.618 17.3787 56.5306L17.6034 56.3565C17.6285 56.3565 44.433 36.5376 21.2757 7.13325ZM15.6799 55.933C15.6799 55.933 14.4808 54.9123 14.1561 54.3893V54.3397L15.605 22.3209C15.605 22.2213 15.7549 22.2213 15.7549 22.3209L17.2038 54.3397V54.3893C16.879 54.9123 15.6799 55.933 15.6799 55.933Z" fill="#00684A"/>
</g>
<defs>
<clipPath id="clip0_316_316">
<rect width="29.7674" height="64" fill="white" transform="translate(0.684326)"/>
</clipPath>
</defs>
</svg>
