<svg width="57" height="64" viewBox="0 0 57 64" fill="none" xmlns="http://www.w3.org/2000/svg">
<g clip-path="url(#clip0_316_295)">
<path d="M28.8041 64C27.9461 64 27.1453 63.7668 26.4018 63.3586L18.7944 58.7517C17.6505 58.1102 18.2224 57.877 18.5657 57.7603C20.11 57.2355 20.396 57.1189 21.9975 56.1859C22.1691 56.0692 22.3979 56.1275 22.5695 56.2442L28.4037 59.8014C28.6325 59.918 28.9185 59.918 29.09 59.8014L51.912 46.3307C52.1408 46.214 52.2552 45.9808 52.2552 45.6892V18.806C52.2552 18.5145 52.1408 18.2812 51.912 18.1646L29.09 4.75223C28.8613 4.63561 28.5752 4.63561 28.4037 4.75223L5.58172 18.1646C5.35293 18.2812 5.23853 18.5728 5.23853 18.806V45.6892C5.23853 45.9224 5.35293 46.214 5.58172 46.3307L11.8163 50.0045C15.191 51.7539 17.3073 49.7129 17.3073 47.6719V21.1386C17.3073 20.7888 17.5933 20.4389 17.9937 20.4389H20.9108C21.2539 20.4389 21.5971 20.7305 21.5971 21.1386V47.6719C21.5971 52.2788 19.1376 54.9613 14.8477 54.9613C13.5322 54.9613 12.5027 54.9613 9.58555 53.5034L3.5798 50.0045C2.09266 49.1297 1.17749 47.4969 1.17749 45.7475V18.8644C1.17749 17.115 2.09266 15.4822 3.5798 14.6074L26.4018 1.13672C27.8317 0.320313 29.7764 0.320313 31.2064 1.13672L54.0283 14.6074C55.5155 15.4822 56.4306 17.115 56.4306 18.8644V45.7475C56.4306 47.4969 55.5155 49.1297 54.0283 50.0045L31.2064 63.4752C30.52 63.7668 29.662 64 28.8041 64Z" fill="#5FA04E"/>
<path d="M35.8966 45.5142C25.887 45.5142 23.8279 40.849 23.8279 36.8836C23.8279 36.5337 24.1138 36.1839 24.5142 36.1839H27.4885C27.8317 36.1839 28.1177 36.4171 28.1177 36.767C28.5753 39.8576 29.8908 41.3738 35.9538 41.3738C40.7584 41.3738 42.8176 40.2658 42.8176 37.6417C42.8176 36.1255 42.2456 35.0175 34.7526 34.2594C28.5181 33.6179 24.6287 32.2184 24.6287 27.145C24.6287 22.4215 28.5181 19.6224 35.0387 19.6224C42.3599 19.6224 45.9634 22.1883 46.421 27.7865C46.421 27.9615 46.3638 28.1364 46.2494 28.3114C46.135 28.4279 45.9634 28.5446 45.7918 28.5446H42.7604C42.4743 28.5446 42.1884 28.3114 42.1312 28.0197C41.4448 24.8124 39.6716 23.7627 34.9815 23.7627C29.7192 23.7627 29.0901 25.6289 29.0901 27.0284C29.0901 28.7195 29.8337 29.2444 36.9262 30.1774C43.9615 31.1104 47.279 32.4517 47.279 37.4668C47.279 42.5984 43.1035 45.5142 35.8966 45.5142Z" fill="#5FA04E"/>
</g>
<defs>
<clipPath id="clip0_316_295">
<rect width="56.32" height="64" fill="white" transform="translate(0.544678)"/>
</clipPath>
</defs>
</svg>
