<svg width="71" height="64" viewBox="0 0 71 64" fill="none" xmlns="http://www.w3.org/2000/svg">
<g clip-path="url(#clip0_316_277)">
<path d="M35.4999 38.7725C39.1723 38.7725 42.1493 35.7404 42.1493 32C42.1493 28.2597 39.1723 25.2275 35.4999 25.2275C31.8276 25.2275 28.8506 28.2597 28.8506 32C28.8506 35.7404 31.8276 38.7725 35.4999 38.7725Z" fill="#087EA4"/>
<path d="M35.4999 47.238C53.8616 47.238 68.7467 40.4157 68.7467 31.9999C68.7467 23.5842 53.8616 16.7618 35.4999 16.7618C17.1383 16.7618 2.25317 23.5842 2.25317 31.9999C2.25317 40.4157 17.1383 47.238 35.4999 47.238Z" stroke="#087EA4" stroke-width="3"/>
<path d="M22.5433 39.619C31.7242 55.8152 44.9676 65.5336 52.1234 61.3257C59.2791 57.1178 57.6375 40.5771 48.4566 24.3809C39.2758 8.18475 26.0324 -1.53366 18.8766 2.67422C11.7209 6.88211 13.3625 23.4228 22.5433 39.619Z" stroke="#087EA4" stroke-width="3"/>
<path d="M22.5432 24.3808C13.3623 40.577 11.7207 57.1177 18.8764 61.3256C26.0322 65.5335 39.2756 55.8151 48.4565 39.6189C57.6373 23.4228 59.2789 6.88205 52.1232 2.67416C44.9674 -1.53372 31.724 8.18469 22.5432 24.3808Z" stroke="#087EA4" stroke-width="3"/>
</g>
<defs>
<clipPath id="clip0_316_277">
<rect width="69.8182" height="64" fill="white" transform="translate(0.59082)"/>
</clipPath>
</defs>
</svg>
