<svg width="65" height="64" viewBox="0 0 65 64" fill="none" xmlns="http://www.w3.org/2000/svg">
<g clip-path="url(#clip0_316_308)">
<path d="M64.6241 31.295C64.4501 20.595 58.4841 10.177 49.2541 4.69099C41.9821 0.161987 32.7961 -1.05701 24.5221 1.03299C12.0691 4.16799 2.14111 15.446 0.879111 28.3C-0.688889 40.44 5.45111 53.066 15.9441 59.292C26.2201 65.736 40.1971 65.475 50.2441 58.692C59.3011 52.814 64.9181 42.092 64.6141 31.304L64.6241 31.295ZM34.4061 59.25C19.8631 60.687 5.79911 48.365 5.40611 33.778C4.30611 21.935 12.1111 10.222 23.2581 6.30299C38.8901 0.0329871 58.0921 11.615 59.7031 28.38C62.2291 43.444 49.6891 58.78 34.4061 59.25ZM24.8361 30.38L45.8661 13.18L34.5021 30.423C31.2801 30.423 28.0581 30.424 24.8361 30.38ZM30.7491 33.56L40.4151 33.604L19.3851 50.847L30.7491 33.56Z" fill="#010101"/>
</g>
<defs>
<clipPath id="clip0_316_308">
<rect width="64" height="64" fill="white" transform="translate(0.63623)"/>
</clipPath>
</defs>
</svg>
